<?xml version="1.0"?>
<svg xmlns="http://www.w3.org/2000/svg" xmlns:xlink="http://www.w3.org/1999/xlink" version="1.1" id="Layer_1" x="0px" y="0px" viewBox="0 0 512 512" style="enable-background:new 0 0 512 512;" xml:space="preserve" width="512px" height="512px" class=""><g><g transform="translate(0 1)">
	<g>
		<path style="fill: rgb(255, 225, 0);" d="M413.193,331.351c0-37.726-11.677-81.74-11.677-81.74v-0.898    c5.389-16.168-3.593-34.133-19.761-39.523c-8.084-2.695-17.067-1.796-24.253,1.797c14.372,7.186,21.558,23.354,16.168,38.625    v0.898c0,0,11.677,44.912,11.677,81.74c0,64.674-0.898,73.656-26.947,107.789l0,0v35.93c0,15.27-11.677,26.947-26.049,26.947    h26.947c15.27,0,26.049-11.677,26.049-26.947v-35.93l0,0C412.295,404.109,413.193,396.025,413.193,331.351" data-original="#FFE100" class="" data-old_color="#E5E51D"/>
		<path style="fill: rgb(255, 225, 0);" d="M162.582,304.404c-24.253,17.067-26.947,33.235-26.947,62.877l0,0    c0,42.218,35.93,71.86,35.93,71.86l0,0v35.93c0,15.27,11.677,26.947,26.947,26.947h106.891c15.27,0,26.049-11.677,26.049-26.947    v-35.93l0,0c26.049-35.032,26.947-43.116,26.947-107.789c0-37.726-11.677-81.74-11.677-81.74v-0.898    c5.389-16.168-3.593-34.133-19.761-39.523c-16.168-5.389,1.797,3.593-3.593,19.761l6.288-17.965    c5.389-16.168-28.744-33.235-44.912-38.625l-1.797-0.898c-16.168-5.389-14.372,2.695-20.66,18.863l-1.796,9.881l26.947-148.211    c1.797-9.881,5.389-20.66,0-28.744c-5.389-8.982-11.677-15.27-21.558-15.27l0,0c-17.067,0-29.642,19.761-32.337,35.93    l-35.93,170.667L170.667,52.895c-4.491-19.761-0.898-26.947-17.965-26.947c-9.881,0-4.491-2.695-9.881,6.288    c-5.389,8.084-7.186,17.965-6.288,27.846l26.049,172.463l11.677,61.979L162.582,304.404z" data-original="#FFE100" class="" data-old_color="#E5E51D"/>
	</g>
	<path style="fill:#FFFFFF;" d="M171.565,475.07v-35.93l0,0c0,0-35.93-29.642-35.93-71.86l0,0c0-29.642,2.695-45.811,26.947-62.877   l11.677-9.881l-11.677-61.979L137.432,60.081c-1.796-9.881,0-19.761,5.389-28.744c5.389-8.084,0-5.389,9.881-5.389   c2.695,0,4.491,0,6.288,0.898c-4.491-6.288-10.779-9.881-18.863-9.881c-10.779,0-19.761,6.288-26.049,15.27   c-5.389,8.084-6.288,17.965-5.389,27.846l26.049,172.463l11.677,61.979l-11.677,9.881c-24.253,17.067-26.947,33.235-26.947,62.877   l0,0c0,42.218,35.93,71.86,35.93,71.86l0,0v35.93c0,15.27,11.677,26.947,26.947,26.947h27.846   C184.14,502.018,171.565,490.34,171.565,475.07" data-original="#FFFFFF" class=""/>
	<path style="fill:#FFA800" d="M386.246,331.351c0-37.726-11.677-81.74-11.677-81.74v-0.898   c5.389-16.168-3.593-34.133-19.761-39.523c-8.084-2.695-17.067-1.796-24.253,1.797c14.372,7.186,21.558,23.354,16.168,38.625v0.898   c0,0,11.677,44.912,11.677,81.74c0,64.674-0.898,73.656-26.947,107.789l0,0v35.93c0,15.27-11.677,26.947-26.049,26.947h26.947   c15.27,0,26.049-11.677,26.049-26.947v-35.93l0,0C385.347,404.109,386.246,396.025,386.246,331.351" data-original="#FFA800" class="" data-old_color="#EDE8E8"/>
	<path d="M312.589,372.67c-4.491,0-8.982-0.898-13.474-1.797c-9.881-3.593-17.965-10.779-23.354-20.66   c-4.491-9.881-5.389-20.66-1.796-30.54l32.337-93.418c3.593-9.881,10.779-17.965,20.66-23.354c9.881-4.491,20.66-5.389,30.54-1.797   c9.881,3.593,17.965,10.779,23.354,20.66c5.389,9.881,5.389,20.66,1.797,30.54l-32.337,93.418   c-3.593,9.881-10.779,17.965-20.66,23.354C325.165,370.874,318.877,372.67,312.589,372.67z M344.926,216.375   c-3.593,0-7.186,0.898-9.881,2.695c-5.389,2.695-9.881,7.186-11.677,12.575l-32.337,93.418c-1.797,5.389-1.797,11.677,0.898,17.067   c2.695,5.389,7.186,9.881,12.575,11.677l0,0c5.389,1.797,11.677,1.797,17.067-0.898c5.389-2.695,9.881-7.186,11.677-12.575   l32.337-93.418c1.796-5.389,1.796-11.677-0.898-17.067c-2.695-5.389-7.186-9.881-12.575-11.677   C349.418,216.375,347.621,216.375,344.926,216.375z" data-original="#000000" class="active-path" style="fill:#000000" data-old_color=" rgb(0, 0, 0)"/>
	<path d="M333.249,511h-54.793c-5.389,0-8.982-3.593-8.982-8.982s3.593-8.982,8.982-8.982h54.793   c9.881,0,17.067-8.084,17.067-17.965v-35.032c0-1.796,0-4.491,1.797-6.288c24.253-32.337,25.151-39.523,25.151-102.4   c0-35.93-11.677-79.046-11.677-79.046c-0.898-1.796,0-3.593,0-5.389c4.491-12.575-1.796-25.151-13.474-28.744   c-5.389-1.796-11.677-1.796-17.067,0.898c-5.389,2.695-9.881,7.186-11.677,12.575c-1.797,4.491-6.288,7.186-11.677,5.389   c-4.491-1.797-7.186-6.288-5.389-11.677l6.288-17.965c3.593-11.677-1.797-23.354-13.474-27.846l-1.796-0.898   c-5.389-1.796-11.677-1.796-16.168,0.898c-5.389,2.695-8.982,7.186-10.779,12.575l-3.593,9.881   c-1.796,4.491-6.288,7.186-10.779,5.389c-4.491-0.898-7.186-5.389-6.288-9.881l27.846-148.211c1.796-8.084,0-16.168-3.593-22.456   c-4.491-6.288-10.779-9.881-17.067-9.881c-11.677,0-20.66,14.372-23.354,28.744l-26.947,170.667   c-0.898,4.491-4.491,7.186-8.982,7.186l0,0c-4.491,0-8.084-3.593-8.982-7.186L161.684,54.691   c-2.695-12.575-8.982-28.744-21.558-28.744c-6.288,0-13.474,4.491-17.965,10.779c-4.491,6.288-5.389,13.474-4.491,22.456   l26.049,172.463l11.677,61.081c0.898,3.593-0.898,6.288-2.695,8.982l-11.677,9.881c-22.456,15.27-24.253,27.846-24.253,55.691   v0.898c0.898,36.828,32.337,63.775,32.337,63.775c2.695,1.797,3.593,4.491,3.593,7.186v35.93c0,9.881,8.084,17.965,17.965,17.965   h35.93c5.389,0,8.982,3.593,8.982,8.982S211.986,511,206.596,511h-35.93c-19.761,0-35.93-16.168-35.93-35.93v-32.337   c-9.881-8.982-35.93-37.726-35.93-75.453v-0.898c0-28.744,2.695-49.404,30.54-69.165l7.186-6.288l-10.779-56.589L99.705,61.877   c-1.796-12.575,0.898-25.151,7.186-35.032c8.084-11.677,20.66-18.863,33.235-18.863c10.779,0,30.54,5.389,39.523,43.116   l17.965,107.789l17.965-115.874C219.172,20.558,234.442-1,256.898-1c12.575,0,24.253,7.186,32.337,18.863   c6.288,9.881,8.084,22.456,6.288,35.032l-20.66,110.484c8.982-4.491,19.761-4.491,29.642-1.796l1.797,0.898   c16.168,5.389,26.947,20.66,26.947,36.828c8.084-2.695,17.965-2.695,26.049,0c20.66,7.186,31.439,28.744,26.049,49.404   c0.898,11.677,9.881,49.404,9.881,82.639c0,62.877-0.898,75.453-26.947,110.484v33.235C368.281,495.73,353.011,511,333.249,511z" data-original="#000000" class="active-path" style="fill:#000000" data-old_color=" rgb(0, 0, 0)"/>
	<path d="M251.509,502.018c0-5.389-3.593-8.982-8.982-8.982s-8.982,3.593-8.982,8.982s3.593,8.982,8.982,8.982   S251.509,507.407,251.509,502.018" data-original="#000000" class="active-path" style="fill:#000000" data-old_color=" rgb(0, 0, 0)"/>
	<path d="M172.463,369.975c-3.593,0-7.186-1.797-8.084-5.389c-1.796-4.491,0-9.881,4.491-11.677   c21.558-8.982,79.046-57.488,90.723-86.232c2.695-8.084,0.898-17.965-4.491-22.456c-7.186-5.389-18.863-3.593-33.235,6.288   c-14.372,9.881-51.2,37.726-81.74,61.081c-3.593,2.695-9.881,2.695-12.575-1.797c-2.695-3.593-2.695-9.881,1.796-12.575   c27.846-21.558,66.47-51.2,82.639-61.979c29.642-19.761,47.607-10.779,53.895-5.389c11.677,9.881,16.168,26.947,9.881,43.116   c-13.474,34.133-75.453,85.333-99.705,96.112C174.26,369.975,173.361,369.975,172.463,369.975z" data-original="#000000" class="active-path" style="fill:#000000" data-old_color=" rgb(0, 0, 0)"/>
	<path d="M256.898,343.926c-4.491,0-8.982-0.898-12.575-1.797l-1.796-0.898c-6.288-2.695-12.575-6.288-17.067-12.575   c-2.695-3.593-2.695-8.084,0-11.677c17.067-20.66,29.642-39.523,34.133-50.302c4.491-10.779-2.695-27.846-13.474-32.337   c-4.491-1.797-6.288-6.288-4.491-10.779l12.575-35.93c7.186-20.66,29.642-31.439,50.302-24.253l1.797,0.898   c9.881,3.593,17.965,10.779,22.456,19.761c4.491,9.881,5.389,20.66,1.797,30.54l-35.93,103.298   C288.337,333.147,273.067,343.926,256.898,343.926z M244.323,322.368c0.898,0.898,2.695,1.797,3.593,1.797l1.796,0.898   c11.677,3.593,23.354-1.796,27.846-13.474l35.93-103.298c1.797-5.389,1.797-11.677-0.898-16.168   c-2.695-5.389-7.186-8.982-12.575-10.779l0,0l-1.796-0.898c-11.677-3.593-23.354,1.796-27.846,13.474l-9.881,28.744   c14.372,11.677,22.456,34.133,15.27,51.2C271.27,285.54,259.593,302.607,244.323,322.368z" data-original="#000000" class="active-path" style="fill:#000000" data-old_color=" rgb(0, 0, 0)"/>
</g></g> </svg>
